<svg width="32" height="32" viewBox="0 0 32 32" fill="none" xmlns="http://www.w3.org/2000/svg">
  <!-- Background circle with gradient -->
  <circle cx="16" cy="16" r="15" fill="url(#gradient)" stroke="url(#borderGradient)" stroke-width="2"/>

  <!-- Winking face -->
  <!-- Left eye (winking) -->
  <path d="M10 12 L14 12" stroke="#1f2937" stroke-width="2" stroke-linecap="round"/>

  <!-- Right eye (open) -->
  <circle cx="22" cy="12" r="2" fill="#1f2937"/>
  <circle cx="22" cy="11.5" r="0.8" fill="#ffffff"/>

  <!-- Nose -->
  <circle cx="16" cy="16" r="1" fill="#ef4444"/>

  <!-- Mouth (big smile) -->
  <path d="M12 20 Q16 24 20 20" stroke="#1f2937" stroke-width="2" stroke-linecap="round" fill="none"/>

  <!-- Tongue sticking out slightly -->
  <ellipse cx="16.5" cy="21.5" rx="1.5" ry="1" fill="#ef4444"/>

  <!-- Fun hair/spikes on top -->
  <path d="M8 6 L10 2 L12 6" stroke="#3b82f6" stroke-width="2" stroke-linecap="round" fill="none"/>
  <path d="M14 4 L16 1 L18 4" stroke="#8b5cf6" stroke-width="2" stroke-linecap="round" fill="none"/>
  <path d="M20 6 L22 2 L24 6" stroke="#10b981" stroke-width="2" stroke-linecap="round" fill="none"/>

  <!-- Small sparkles around for fun -->
  <circle cx="6" cy="8" r="1" fill="#fbbf24"/>
  <circle cx="26" cy="6" r="1" fill="#f472b6"/>
  <circle cx="4" cy="20" r="1" fill="#34d399"/>
  <circle cx="28" cy="24" r="1" fill="#a78bfa"/>

  <!-- Gradients -->
  <defs>
    <linearGradient id="gradient" x1="0%" y1="0%" x2="100%" y2="100%">
      <stop offset="0%" style="stop-color:#3b82f6;stop-opacity:0.1" />
      <stop offset="50%" style="stop-color:#8b5cf6;stop-opacity:0.1" />
      <stop offset="100%" style="stop-color:#ec4899;stop-opacity:0.1" />
    </linearGradient>
    <linearGradient id="borderGradient" x1="0%" y1="0%" x2="100%" y2="100%">
      <stop offset="0%" style="stop-color:#3b82f6;stop-opacity:0.3" />
      <stop offset="50%" style="stop-color:#8b5cf6;stop-opacity:0.3" />
      <stop offset="100%" style="stop-color:#ec4899;stop-opacity:0.3" />
    </linearGradient>
  </defs>
</svg>